<svg xmlns="http://www.w3.org/2000/svg" viewBox="0 0 520 120" width="520" height="120">
  <!-- Background -->
  <rect width="520" height="120" rx="12" fill="#0d1117"/>

  <!-- Shield -->
  <path d="M30,22 L90,22 L90,64 Q90,94 60,98 Q30,94 30,64 Z"
        fill="none" stroke="#30363d" stroke-width="1.5"/>
  <path d="M37,28 L83,28 L83,62 Q83,87 60,92 Q37,87 37,62 Z"
        fill="#1c2128"/>

  <!-- Lock shackle -->
  <path d="M50,60 L50,51 Q50,42 60,42 Q70,42 70,51 L70,60"
        fill="none" stroke="#388bfd" stroke-width="3" stroke-linecap="round"/>

  <!-- Lock body -->
  <rect x="46" y="58" width="28" height="22" rx="4" fill="#388bfd"/>

  <!-- Keyhole -->
  <circle cx="60" cy="68" r="4.5" fill="#0d1117"/>
  <rect x="57.5" y="68" width="5" height="8" rx="2" fill="#0d1117"/>

  <!-- Text -->
  <text x="114" y="70"
        font-family="ui-monospace, SFMono-Regular, Menlo, monospace"
        font-size="38" font-weight="700"
        fill="#e6edf3">rbac</text>
  <text x="209" y="70"
        font-family="ui-monospace, SFMono-Regular, Menlo, monospace"
        font-size="38" font-weight="300"
        fill="#388bfd">-manager</text>

  <!-- Subtitle -->
  <text x="115" y="94"
        font-family="-apple-system, BlinkMacSystemFont, 'Segoe UI', sans-serif"
        font-size="12" fill="#6e7681" letter-spacing="2">
    KUBERNETES RBAC OPERATOR
  </text>
</svg>
